<svg xmlns="http://www.w3.org/2000/svg" width="79" height="38" fill="none" viewBox="0 0 79 38">
  <path fill="#2B7FFF" d="M1.68.424h6.312c1.488 0 2.632.112 3.432.336.816.208 1.392.552 1.728 1.032.336.464.504 1.12.504 1.968v1.92c0 .432-.176.84-.528 1.224a2.595 2.595 0 0 1-1.2.792v.12c.608.064 1.16.328 1.656.792.512.448.768.952.768 1.512v2.4c0 1.264-.504 2.16-1.512 2.688S10.272 16 8.16 16H1.68V.424ZM7.992 6.76c.592 0 1.032-.048 1.32-.144.288-.096.48-.248.576-.456.112-.224.168-.544.168-.96v-.768c0-.368-.048-.64-.144-.816-.096-.192-.296-.328-.6-.408-.288-.08-.752-.12-1.392-.12H5.424V6.76h2.568Zm.096 6.576c.912 0 1.56-.104 1.944-.312.384-.208.576-.544.576-1.008v-1.248c0-.576-.152-.984-.456-1.224-.288-.24-.808-.36-1.56-.36H5.424v4.152h2.664Zm14.514 2.904c-4.112 0-6.168-1.256-6.168-3.768V8.296c0-1.456.464-2.512 1.392-3.168.944-.656 2.392-.984 4.344-.984 1.84 0 3.184.32 4.032.96.864.624 1.296 1.688 1.296 3.192v2.832h-7.536v1.056c0 .672.24 1.152.72 1.44.48.288 1.344.432 2.592.432 1.152 0 2.448-.168 3.888-.504v2.232a21.813 21.813 0 0 1-4.56.456Zm1.56-7.104v-1.68c0-.384-.16-.672-.48-.864-.304-.192-.824-.288-1.56-.288-.848 0-1.416.096-1.704.288a.99.99 0 0 0-.456.864v1.68h4.2Zm9.303 7.104c-1.088 0-1.904-.096-2.448-.288a1.972 1.972 0 0 1-1.128-1.08c-.208-.528-.312-1.312-.312-2.352 0-.928.112-1.656.336-2.184.24-.528.616-.904 1.128-1.128.528-.24 1.248-.36 2.16-.36h3.936v-.792c0-.496-.072-.864-.216-1.104-.128-.24-.376-.408-.744-.504-.352-.096-.888-.144-1.608-.144-.992 0-2.352.096-4.08.288V4.384c1.264-.16 2.744-.24 4.44-.24 1.488 0 2.632.112 3.432.336.816.224 1.4.608 1.752 1.152.352.544.528 1.336.528 2.376V16h-3.432v-1.056c-.272.464-.64.792-1.104.984-.464.208-1.344.312-2.64.312Zm1.368-2.184c.704 0 1.208-.024 1.512-.072.224-.032.376-.08.456-.144a.706.706 0 0 0 .24-.312c.064-.112.096-.28.096-.504v-2.256h-2.4c-.544 0-.928.04-1.152.12a.652.652 0 0 0-.456.432c-.08.208-.12.584-.12 1.128 0 .528.04.896.12 1.104.08.208.232.344.456.408.24.064.656.096 1.248.096Zm12.922 2.184c-1.488 0-2.536-.264-3.144-.792-.591-.544-.887-1.392-.887-2.544v-8.52h3.504v8.04c0 .448.04.784.12 1.008a.876.876 0 0 0 .528.48c.272.096.68.144 1.224.144.688 0 1.191-.04 1.511-.12.32-.096.537-.256.649-.48.111-.224.168-.568.168-1.032v-8.04h3.504V16h-3.457v-1.416c-.256 1.104-1.495 1.656-3.72 1.656Zm16.05 0c-.592 0-1.088-.024-1.488-.072-.4-.048-.8-.144-1.2-.288-.448-.144-.816-.344-1.104-.6-.272-.256-.496-.608-.672-1.056-.192-.464-.288-1-.288-1.608V6.544H56.7v-2.16h2.352v-3.36h3.504v3.36h3.192v2.16h-3.192v5.472c0 .56.048.984.144 1.272.096.272.28.472.552.6.272.112.688.168 1.248.168.224 0 .64-.04 1.248-.12v2.184c-.752.08-1.4.12-1.944.12Zm7.253-.336-4.632-11.52h3.816l2.616 8.208 2.376-8.208h3.624l-6.36 16.608h-3.552l2.112-5.088ZM.96 34.72l8.112-10.632H1.2v-2.664h12.48v2.256L5.568 34.312h8.256V37H.96v-2.28Zm20.84 2.52c-.72 0-1.313-.024-1.777-.072a9.328 9.328 0 0 1-1.488-.288c-.576-.16-1.04-.384-1.392-.672-.352-.304-.648-.728-.888-1.272-.24-.528-.36-1.168-.36-1.92v-3.432c0-.768.12-1.44.36-2.016.24-.576.552-1.024.936-1.344.336-.272.776-.496 1.32-.672a6.982 6.982 0 0 1 1.632-.36c.608-.032 1.16-.048 1.656-.048.736 0 1.32.024 1.752.072a6.74 6.74 0 0 1 1.464.288c.576.176 1.04.416 1.392.72.368.304.68.736.936 1.296.24.576.36 1.264.36 2.064v3.432c0 .72-.12 1.352-.36 1.896-.224.544-.52.968-.888 1.272-.32.272-.76.496-1.32.672-.544.16-1.08.264-1.608.312a17.71 17.71 0 0 1-1.728.072Zm0-2.184c.655 0 1.151-.048 1.487-.144.336-.112.568-.28.696-.504.144-.224.216-.552.216-.984v-4.392c0-.64-.168-1.088-.504-1.344-.336-.256-.968-.384-1.896-.384-.928 0-1.56.128-1.896.384-.336.256-.504.704-.504 1.344v4.392c0 .432.064.76.192.984.144.224.384.392.72.504.336.096.832.144 1.488.144Zm8.634-9.672h3.456V26.8c.272-1.104 1.512-1.656 3.72-1.656 1.488 0 2.528.272 3.12.816.608.528.912 1.368.912 2.52V37h-3.504v-8.064c0-.448-.048-.784-.144-1.008-.08-.224-.256-.384-.528-.48-.256-.096-.656-.144-1.2-.144-.688 0-1.192.048-1.512.144-.32.08-.536.232-.648.456-.112.224-.168.568-.168 1.032V37h-3.504V25.384ZM50.54 37.24c-4.112 0-6.168-1.256-6.168-3.768v-4.176c0-1.456.464-2.512 1.392-3.168.944-.656 2.392-.984 4.344-.984 1.84 0 3.184.32 4.032.96.864.624 1.296 1.688 1.296 3.192v2.832H47.9v1.056c0 .672.24 1.152.72 1.44.48.288 1.344.432 2.592.432 1.152 0 2.448-.168 3.888-.504v2.232a21.813 21.813 0 0 1-4.56.456Zm1.56-7.104v-1.68c0-.384-.16-.672-.48-.864-.304-.192-.824-.288-1.56-.288-.848 0-1.416.096-1.704.288a.99.99 0 0 0-.456.864v1.68h4.2Z"/>
</svg>
